<svg width="99" height="93" viewBox="0 0 99 93" fill="none" xmlns="http://www.w3.org/2000/svg">
<g clip-path="url(#clip0_1_14)">
<rect width="99" height="93" fill="url(#paint0_linear_1_14)"/>
<path d="M49.5 93C76.8381 93 99 72.1812 99 46.5C99 20.8188 76.8381 0 49.5 0C22.1619 0 0 20.8188 0 46.5C0 72.1812 22.1619 93 49.5 93Z" fill="white"/>
<path d="M57.6984 0.656812C54.9898 0.224518 52.2475 0.00482141 49.5 0C22.1512 0 0 20.8087 0 46.5C0 56.3638 3.30103 65.4778 8.84812 73.037C12.2512 68.3405 20.1001 65.1 29.1988 65.1C35.4482 65.1 41.1005 66.649 45.1502 69.1397L57.6984 0.656812ZM84.0015 13.1973C92.5495 30.9545 85.0503 40.4405 85.0503 40.4405C79.2495 24.0492 62.4504 21.6545 62.4504 21.6545C62.4504 21.6545 51.3996 77.594 51.3996 78.2973C51.3996 84.3568 44.55 89.4776 35.2502 91.0267C39.8724 92.3332 44.6731 92.998 49.5 93C76.8488 93 99 72.1913 99 46.5C99 33.4422 93.2487 21.6516 84.0015 13.1973Z" fill="#FBBF02"/>
</g>
<defs>
<linearGradient id="paint0_linear_1_14" x1="74" y1="19.5" x2="23.5" y2="73" gradientUnits="userSpaceOnUse">
<stop stop-color="#5BEC73"/>
<stop offset="1" stop-color="#1654B3" stop-opacity="0"/>
</linearGradient>
<clipPath id="clip0_1_14">
<rect width="99" height="93" fill="white"/>
</clipPath>
</defs>
</svg>
